<svg width="19" height="18" viewBox="0 0 19 18" fill="none" xmlns="http://www.w3.org/2000/svg">
<path d="M4.83218 0C4.33533 0 3.93209 0.411692 3.93209 0.918956C3.93209 1.42622 4.33533 1.83791 4.83218 1.83791H16.5333V10.1085C16.5333 10.6158 16.9366 11.0275 17.4334 11.0275C17.9303 11.0275 18.3335 10.6158 18.3335 10.1085V1.83791C18.3335 0.822466 17.5279 0 16.5333 0H4.83218ZM2.13191 3.67582C1.14182 3.67582 0.340529 4.50289 0.340529 5.51374L0.333497 17.0779C0.332597 17.8967 1.30292 18.3083 1.86997 17.7294L3.93209 15.6223H12.933C13.9231 15.6223 14.7331 14.7952 14.7331 13.7843V5.51374C14.7331 4.50289 13.9231 3.67582 12.933 3.67582H2.13191Z" fill="#B6B7B9"/>
</svg>
