<svg width="4" height="18" viewBox="0 0 4 18" fill="none" xmlns="http://www.w3.org/2000/svg">
<path d="M3 18C3.552 18 4 17.552 4 17L4 15C4 14.448 3.552 14 3 14L1 14C0.448 14 3.10526e-07 14.448 2.62268e-07 15L8.74228e-08 17C3.91654e-08 17.552 0.448 18 1 18L3 18ZM3 11C3.552 11 4 10.552 4 10L4 8C4 7.448 3.552 7 3 7L1 7C0.448001 7 9.22485e-07 7.448 8.74228e-07 8L6.99382e-07 10C6.51125e-07 10.552 0.448001 11 1 11L3 11ZM3 4C3.552 4 4 3.552 4 3L4 1C4 0.448 3.552 -3.91654e-08 3 -8.74228e-08L1 -2.62268e-07C0.448002 -3.10526e-07 1.53444e-06 0.448 1.48619e-06 1L1.31134e-06 3C1.26308e-06 3.552 0.448001 4 1 4L3 4Z" fill="#0F1011"/>
</svg>
